<svg width="342" height="71" viewBox="0 0 342 71" fill="none" xmlns="http://www.w3.org/2000/svg">
<path d="M0.125 1.5625C4.3125 2.0625 7.9375 2.4375 11 2.6875C14.0625 2.875 16.5938 3.03125 18.5938 3.15625C20.9062 3.28125 22.8438 3.3125 24.4062 3.25C26.0312 3.1875 28.25 3.03125 31.0625 2.78125C33.4375 2.59375 36.5625 2.34375 40.4375 2.03125C44.3125 1.65625 49.1562 1.15625 54.9688 0.53125C55.0312 1.96875 55.0625 3.375 55.0625 4.75C55.125 6.0625 55.1875 7.21875 55.25 8.21875C55.3125 9.40625 55.3438 10.5 55.3438 11.5C55.3438 12.5625 55.2812 13.9062 55.1562 15.5312C55.0312 16.9062 54.8125 18.6562 54.5 20.7812C54.25 22.8438 53.8438 25.3125 53.2812 28.1875C52.4062 24.8125 51.5625 22.0938 50.75 20.0312C49.9375 17.9062 49.1875 16.2188 48.5 14.9688C47.75 13.5312 47 12.4375 46.25 11.6875C45.4375 11.125 44.4688 10.6562 43.3438 10.2812C42.3438 9.96875 41.0625 9.71875 39.5 9.53125C38 9.34375 36.2188 9.375 34.1562 9.625C33.8438 17.875 33.625 24.5625 33.5 29.6875C33.375 34.8125 33.2812 38.8125 33.2188 41.6875C33.1562 45.125 33.125 47.5938 33.125 49.0938C33.1875 51.2188 33.5312 53.3125 34.1562 55.375C34.6562 57.125 35.4688 58.9375 36.5938 60.8125C37.7188 62.6875 39.3438 64.3438 41.4688 65.7812H30.0312C28.9688 65.7812 27.6562 65.8438 26.0938 65.9688C24.7812 66.0938 23.0938 66.2188 21.0312 66.3438C19.0312 66.4688 16.6875 66.6875 14 67C14.9375 65.375 15.6875 63.9062 16.25 62.5938C16.8125 61.2812 17.25 60.1562 17.5625 59.2188C17.9375 58.0938 18.2188 57.0938 18.4062 56.2188C18.4688 54.9688 18.625 52.4375 18.875 48.625C18.9375 47.0625 19 45.125 19.0625 42.8125C19.1875 40.5 19.3125 37.75 19.4375 34.5625C19.625 31.375 19.7812 27.7188 19.9062 23.5938C20.0938 19.4062 20.2812 14.6875 20.4688 9.4375C19.3438 9.125 18.2812 9.15625 17.2812 9.53125C16.2812 9.84375 15.4062 10.25 14.6562 10.75C13.7812 11.375 12.9375 12.125 12.125 13C11.3125 14.0625 10.4062 15.4375 9.40625 17.125C8.53125 18.5625 7.53125 20.4688 6.40625 22.8438C5.28125 25.1562 4 28.0312 2.5625 31.4688C2.25 27.8438 2.03125 24.875 1.90625 22.5625C1.78125 20.1875 1.6875 18.3438 1.625 17.0312C1.5625 15.4688 1.53125 14.3125 1.53125 13.5625C1.53125 12.875 1.46875 11.9688 1.34375 10.8438C1.21875 9.90625 1.0625 8.6875 0.875 7.1875C0.6875 5.625 0.4375 3.75 0.125 1.5625Z" fill="#F84848"/>
<path d="M51.5675 5.96875C55.9425 6.09375 59.5675 6.1875 62.4425 6.25C65.38 6.25 67.755 6.25 69.5675 6.25H74.5363H102.474C102.599 7.5 102.693 8.71875 102.755 9.90625C102.88 11.0312 102.943 12.0312 102.943 12.9062C102.943 13.9688 102.911 14.9375 102.849 15.8125C102.786 16.6875 102.693 17.625 102.568 18.625C102.443 19.5 102.318 20.4375 102.193 21.4375C102.068 22.4375 101.849 23.4688 101.536 24.5312C100.661 21.1562 99.4738 18.5938 97.9738 16.8438C96.5363 15.0938 95.0675 13.8125 93.5675 13C91.8175 12.0625 89.9738 11.5625 88.0363 11.5C85.4738 11.625 83.4738 11.8438 82.0363 12.1562C80.5988 12.4688 79.4738 12.9062 78.6613 13.4688C77.8488 14.0312 77.2238 14.6875 76.7863 15.4375C76.4113 16.125 76.005 16.9062 75.5675 17.7812C75.1925 18.5312 74.8488 19.6875 74.5363 21.25C74.2238 22.5625 73.9113 24.3438 73.5988 26.5938C73.3488 28.8438 73.0675 31.75 72.755 35.3125C74.4425 34.8125 75.7863 34.3438 76.7863 33.9062C77.8488 33.4688 78.6925 33.0938 79.3175 32.7812C80.005 32.4062 80.505 32.0625 80.8175 31.75C81.0675 31.375 81.4425 30.6875 81.9425 29.6875C82.3175 28.8125 82.8175 27.625 83.4425 26.125C84.13 24.625 84.9425 22.5625 85.88 19.9375C86.005 22.8125 86.0675 25.2188 86.0675 27.1562C86.0675 29.0312 86.0988 30.5625 86.1613 31.75C86.1613 33.125 86.1925 34.2188 86.255 35.0312V38.5938C86.255 39.9062 86.255 41.6875 86.255 43.9375C86.3175 46.125 86.4113 48.9062 86.5363 52.2812C85.7863 49.9688 85.0988 48.1562 84.4738 46.8438C83.9113 45.4688 83.4113 44.4375 82.9738 43.75C82.4738 42.9375 82.0363 42.375 81.6613 42.0625C81.2238 41.9375 80.63 41.8125 79.88 41.6875C79.1925 41.625 78.3175 41.5938 77.255 41.5938C76.255 41.5938 74.9738 41.75 73.4113 42.0625C73.2238 45.5 73.1925 48.2812 73.3175 50.4062C73.505 52.4688 73.755 54.0625 74.0675 55.1875C74.38 56.5 74.755 57.4375 75.1925 58C75.755 58.5625 76.88 59.0312 78.5675 59.4062C80.255 59.7188 82.1613 59.8438 84.2863 59.7812C86.4738 59.6562 88.6925 59.2812 90.9425 58.6562C93.1925 58.0312 95.1925 57 96.9425 55.5625C98.255 54.375 99.6613 52.875 101.161 51.0625C102.411 49.5 103.786 47.5312 105.286 45.1562C106.849 42.7812 108.38 39.9062 109.88 36.5312C109.63 39.3438 109.443 41.6875 109.318 43.5625C109.255 45.375 109.161 46.8438 109.036 47.9688C108.911 49.2812 108.818 50.2812 108.755 50.9688C108.755 51.7188 108.661 52.7812 108.474 54.1562C108.349 55.3438 108.13 56.9688 107.818 59.0312C107.568 61.0312 107.224 63.5938 106.786 66.7188C103.849 66.7812 101.068 66.8438 98.4425 66.9062C95.8175 66.9062 93.505 66.9375 91.505 67C89.13 67.0625 86.9425 67.125 84.9425 67.1875C82.88 67.1875 80.5988 67.2812 78.0988 67.4688C75.9113 67.5938 73.3175 67.7812 70.3175 68.0312C67.38 68.2812 64.13 68.625 60.5675 69.0625C60.88 64.8125 61.0988 60.8125 61.2238 57.0625C61.4113 53.25 61.5363 49.9062 61.5988 47.0312C61.6613 43.6562 61.6613 40.5312 61.5988 37.6562C61.9113 30.4688 61.7863 24.6562 61.2238 20.2188C60.6613 15.7812 60.005 12.9375 59.255 11.6875C58.88 11.25 58.3488 10.7188 57.6613 10.0938C57.0988 9.59375 56.3175 9 55.3175 8.3125C54.3175 7.625 53.0675 6.84375 51.5675 5.96875Z" fill="#3580F1"/>
<path d="M135.729 2.21875C138.541 2.59375 140.916 2.78125 142.854 2.78125C143.916 2.78125 144.885 2.75 145.76 2.6875C146.635 2.625 147.729 2.53125 149.041 2.40625C150.166 2.28125 151.573 2.15625 153.26 2.03125C154.948 1.90625 156.916 1.6875 159.166 1.375C158.354 2 157.729 2.71875 157.291 3.53125C156.854 4.34375 156.51 5.125 156.26 5.875C156.01 6.75 155.823 7.65625 155.698 8.59375C155.635 9.15625 155.604 10.3125 155.604 12.0625C155.666 13.8125 155.698 15.9375 155.698 18.4375C155.76 20.9375 155.76 23.7188 155.698 26.7812C155.698 29.8438 155.635 32.9688 155.51 36.1562C155.385 39.2812 155.198 42.4062 154.948 45.5312C154.698 48.5938 154.323 51.4375 153.823 54.0625C153.385 56.625 152.791 58.875 152.041 60.8125C151.354 62.6875 150.51 64 149.51 64.75C147.448 66.3125 145.198 67.5938 142.76 68.5938C140.323 69.5312 137.916 70.1562 135.541 70.4688C133.166 70.7812 130.916 70.7812 128.791 70.4688C126.729 70.2188 124.979 69.5938 123.541 68.5938C122.604 67.9062 121.729 66.9375 120.916 65.6875C120.104 64.4375 119.354 63.0625 118.666 61.5625C118.041 60 117.448 58.4062 116.885 56.7812C116.385 55.0938 115.948 53.5625 115.573 52.1875C115.135 50.75 114.791 49.5 114.541 48.4375C114.229 47.3125 114.01 46.5625 113.885 46.1875C113.635 45.625 113.229 45.0625 112.666 44.5C112.104 43.9375 111.51 43.4375 110.885 43C110.26 42.5625 109.729 42.25 109.291 42.0625C108.791 41.8125 108.51 41.75 108.448 41.875C108.448 42 108.948 42.0312 109.948 41.9688C110.885 41.8438 112.041 41.7188 113.416 41.5938C114.791 41.4688 116.229 41.375 117.729 41.3125C119.229 41.1875 120.479 41.1562 121.479 41.2188C122.291 41.2188 123.354 41.25 124.666 41.3125C125.791 41.375 127.229 41.4375 128.979 41.5C130.729 41.5 132.885 41.5625 135.448 41.6875C133.823 42.1875 132.51 42.75 131.51 43.375C130.573 43.9375 129.854 44.4688 129.354 44.9688C128.729 45.5938 128.291 46.2188 128.041 46.8438C127.854 47.4062 127.698 48.5625 127.573 50.3125C127.51 52 127.635 53.75 127.948 55.5625C128.26 57.375 128.854 59.0312 129.729 60.5312C130.604 62.0312 131.979 62.875 133.854 63.0625C135.854 63.25 137.479 62.9062 138.729 62.0312C140.041 61.0938 141.073 59.8438 141.823 58.2812C142.573 56.7188 143.135 54.9688 143.51 53.0312C143.885 51.0938 144.198 49.1875 144.448 47.3125C144.635 46.0625 144.698 44.3125 144.635 42.0625C144.573 39.8125 144.416 37.375 144.166 34.75C143.916 32.125 143.604 29.4062 143.229 26.5938C142.916 23.7812 142.604 21.1875 142.291 18.8125C141.979 16.4375 141.666 14.4062 141.354 12.7188C141.104 11.0312 140.948 9.96875 140.885 9.53125C140.635 8.71875 140.291 7.875 139.854 7C139.479 6.3125 138.948 5.53125 138.26 4.65625C137.635 3.78125 136.791 2.96875 135.729 2.21875Z" fill="#35F153"/>
<path d="M178.64 6.53125C181.765 6.71875 184.39 6.875 186.515 7C188.702 7.0625 190.515 7.125 191.952 7.1875C193.577 7.25 194.952 7.25 196.077 7.1875C197.202 7.125 198.734 6.96875 200.671 6.71875C202.296 6.53125 204.452 6.25 207.14 5.875C209.89 5.4375 213.296 4.875 217.359 4.1875C215.921 5.625 214.796 6.9375 213.984 8.125C213.234 9.25 212.64 10.2188 212.202 11.0312C211.702 12.0312 211.359 12.875 211.171 13.5625C211.046 14.1875 211.171 15.75 211.546 18.25C211.921 20.75 212.452 23.7188 213.14 27.1562C213.827 30.5312 214.577 34.1562 215.39 38.0312C216.202 41.8438 217.015 45.4375 217.827 48.8125C218.64 52.125 219.359 54.9688 219.984 57.3438C220.671 59.6562 221.171 61.0312 221.484 61.4688C222.421 62.7812 223.015 63.6562 223.265 64.0938C223.515 64.4688 223.952 64.8125 224.577 65.125C224.827 65.25 225.234 65.4375 225.796 65.6875C226.296 65.9375 226.952 66.25 227.765 66.625C228.64 67 229.734 67.4375 231.046 67.9375C228.609 68.0625 226.515 68.1562 224.765 68.2188C223.015 68.2188 221.577 68.25 220.452 68.3125C219.14 68.375 218.015 68.4375 217.077 68.5C216.14 68.5 215.015 68.5625 213.702 68.6875C212.577 68.8125 211.109 68.9375 209.296 69.0625C207.546 69.1875 205.484 69.3125 203.109 69.4375C204.359 68.5625 205.359 67.7812 206.109 67.0938C206.921 66.3438 207.546 65.7188 207.984 65.2188C208.484 64.5938 208.827 64.0312 209.015 63.5312C209.14 62.9688 209.234 62.125 209.296 61C209.359 60 209.359 58.6875 209.296 57.0625C209.234 55.375 209.077 53.1875 208.827 50.5L184.171 53.0312C183.546 54.0938 183.077 55.0312 182.765 55.8438C182.452 56.5938 182.234 57.25 182.109 57.8125C181.921 58.5 181.859 59.0625 181.921 59.5C182.046 60 182.265 60.5938 182.577 61.2812C182.89 61.9062 183.327 62.6562 183.89 63.5312C184.515 64.3438 185.421 65.3125 186.609 66.4375C185.046 66.375 183.452 66.3438 181.827 66.3438C180.202 66.3438 178.702 66.375 177.327 66.4375C175.702 66.5 174.109 66.5625 172.546 66.625C170.984 66.6875 169.202 66.7812 167.202 66.9062C165.515 67.0312 163.546 67.1875 161.296 67.375C158.984 67.5 156.515 67.6875 153.89 67.9375C155.515 67.1875 156.89 66.4375 158.015 65.6875C159.14 64.875 160.077 64.125 160.827 63.4375C161.702 62.6875 162.452 61.9688 163.077 61.2812C163.515 60.6562 164.39 59.2188 165.702 56.9688C167.015 54.6562 168.484 51.9375 170.109 48.8125C171.796 45.6875 173.546 42.3438 175.359 38.7812C177.234 35.2188 178.921 31.875 180.421 28.75C181.921 25.5625 183.14 22.8125 184.077 20.5C185.015 18.1875 185.484 16.6875 185.484 16C185.359 15.1875 185.046 14.2812 184.546 13.2812C184.109 12.4062 183.421 11.4062 182.484 10.2812C181.609 9.15625 180.327 7.90625 178.64 6.53125ZM207.702 43.5625C207.327 41.375 206.984 39.5 206.671 37.9375C206.359 36.3125 206.109 34.9688 205.921 33.9062C205.671 32.6562 205.484 31.5625 205.359 30.625C205.171 29.75 204.952 28.625 204.702 27.25C204.452 26.0625 204.14 24.5938 203.765 22.8438C203.452 21.0312 203.046 18.875 202.546 16.375C198.984 23.5 196.202 29.0312 194.202 32.9688C192.265 36.8438 190.859 39.6875 189.984 41.5C188.921 43.625 188.327 44.875 188.202 45.25L207.702 43.5625Z" fill="#F13557"/>
<path d="M245.364 2.125C247.426 2.25 249.114 2.34375 250.426 2.40625C251.801 2.46875 252.895 2.5 253.708 2.5C254.645 2.5625 255.364 2.5625 255.864 2.5H258.301C259.239 2.5 260.551 2.53125 262.239 2.59375C263.989 2.59375 266.27 2.625 269.083 2.6875C268.77 3.125 268.52 3.65625 268.333 4.28125C268.145 4.90625 267.989 5.53125 267.864 6.15625C267.676 6.84375 267.551 7.59375 267.489 8.40625C267.426 9.40625 267.301 10.9688 267.114 13.0938C266.989 14.9062 266.801 17.4375 266.551 20.6875C266.364 23.875 266.114 28.0312 265.801 33.1562C267.614 33.1562 269.176 33 270.489 32.6875C271.801 32.3125 272.895 31.875 273.77 31.375C274.77 30.875 275.583 30.2812 276.208 29.5938C276.52 29.2188 276.864 28.8125 277.239 28.375C277.551 28 277.958 27.5938 278.458 27.1562C278.958 26.7188 279.489 26.25 280.051 25.75C279.926 27.4375 279.833 28.9062 279.77 30.1562C279.708 31.3438 279.645 32.3438 279.583 33.1562C279.52 34.0938 279.458 34.8438 279.395 35.4062C279.395 36.0938 279.333 37 279.208 38.125C279.083 39.125 278.958 40.4688 278.833 42.1562C278.708 43.7812 278.583 45.8438 278.458 48.3438C277.833 47.0938 277.239 46.125 276.676 45.4375C276.176 44.6875 275.739 44.125 275.364 43.75C274.864 43.3125 274.426 43 274.051 42.8125C273.614 42.6875 273.02 42.5625 272.27 42.4375C271.583 42.3125 270.708 42.25 269.645 42.25C268.645 42.1875 267.333 42.125 265.708 42.0625C265.708 45.75 265.77 48.7188 265.895 50.9688C266.083 53.2188 266.27 54.9688 266.458 56.2188C266.708 57.7188 266.989 58.7812 267.301 59.4062C267.676 59.9688 268.208 60.625 268.895 61.375C269.52 62.0625 270.364 62.875 271.426 63.8125C272.489 64.75 273.864 65.8125 275.551 67C274.114 67.3125 272.739 67.5312 271.426 67.6562C270.176 67.7188 269.02 67.8125 267.958 67.9375C266.77 68.0625 265.645 68.125 264.583 68.125C263.458 68.125 262.083 68.1875 260.458 68.3125C259.02 68.4375 257.239 68.5625 255.114 68.6875C252.989 68.8125 250.426 68.9688 247.426 69.1562C248.489 68.0938 249.333 67.125 249.958 66.25C250.645 65.3125 251.176 64.5 251.551 63.8125C251.989 63.0625 252.301 62.4062 252.489 61.8438C252.614 61.1562 252.801 60 253.051 58.375C253.239 57 253.458 55.0938 253.708 52.6562C253.958 50.2188 254.239 47 254.551 43L229.051 43.2812L229.52 37C232.583 32.625 235.02 29 236.833 26.125C238.708 23.1875 240.145 20.8125 241.145 19C242.27 16.9375 243.083 15.3125 243.583 14.125C243.895 13 244.176 11.8125 244.426 10.5625C244.676 9.5 244.895 8.25 245.083 6.8125C245.27 5.3125 245.364 3.75 245.364 2.125ZM255.676 34.0938C255.801 32.4062 255.895 30.875 255.958 29.5C256.083 28.0625 256.176 26.8125 256.239 25.75C256.301 24.5625 256.333 23.4375 256.333 22.375V18.9062C256.333 17.7812 256.333 16.4688 256.333 14.9688C256.395 13.4062 256.458 11.6562 256.52 9.71875L242.739 34.2812L255.676 34.0938Z" fill="#F1D335"/>
<path d="M281.994 3.15625C284.181 3.46875 286.087 3.71875 287.712 3.90625C289.337 4.09375 290.681 4.25 291.744 4.375C292.994 4.5 294.056 4.59375 294.931 4.65625C295.931 4.78125 297.15 4.71875 298.587 4.46875C300.087 4.21875 301.681 3.96875 303.369 3.71875C305.056 3.40625 306.806 3.15625 308.619 2.96875C310.431 2.78125 312.181 2.78125 313.869 2.96875C314.994 3.09375 316.431 3.34375 318.181 3.71875C319.931 4.09375 321.775 4.6875 323.712 5.5C325.712 6.3125 327.712 7.375 329.712 8.6875C331.712 10 333.525 11.6562 335.15 13.6562C336.775 15.6562 338.119 18.0312 339.181 20.7812C340.244 23.5312 340.837 26.75 340.962 30.4375C341.15 35.9375 340.65 40.9375 339.462 45.4375C338.275 49.9375 336.431 53.7812 333.931 56.9688C331.494 60.1562 328.4 62.6562 324.65 64.4688C320.9 66.2812 316.525 67.2812 311.525 67.4688C307.712 67.7812 303.962 68.0625 300.275 68.3125C298.712 68.4375 297.056 68.5312 295.306 68.5938C293.619 68.6562 291.931 68.7188 290.244 68.7812C288.556 68.7812 286.931 68.75 285.369 68.6875C283.806 68.625 282.369 68.5312 281.056 68.4062C282.494 67.7188 283.65 67.0312 284.525 66.3438C285.462 65.6562 286.181 65.0625 286.681 64.5625C287.244 63.9375 287.65 63.375 287.9 62.875C288.025 62.1875 288.212 60.8438 288.462 58.8438C288.65 57.1562 288.9 54.75 289.212 51.625C289.525 48.5 289.9 44.25 290.337 38.875L290.9 32.2188C291.212 28.0938 291.337 24.7188 291.275 22.0938C291.275 19.4688 291.212 17.4062 291.087 15.9062C290.9 14.1562 290.65 12.875 290.337 12.0625C290.087 11.375 289.619 10.5625 288.931 9.625C288.306 8.875 287.431 7.96875 286.306 6.90625C285.244 5.78125 283.806 4.53125 281.994 3.15625ZM301.775 37.6562C301.9 43.2188 302.181 47.5 302.619 50.5C303.119 53.4375 303.65 55.625 304.212 57.0625C304.9 58.6875 305.65 59.6562 306.462 59.9688C307.65 59.9688 308.994 59.4688 310.494 58.4688C311.994 57.4062 313.462 55.8125 314.9 53.6875C316.4 51.5625 317.744 48.9062 318.931 45.7188C320.181 42.5312 321.087 38.8125 321.65 34.5625C322.212 30.3125 322.056 26.5625 321.181 23.3125C320.306 20.0625 319.15 17.3438 317.712 15.1562C316.275 12.9062 314.806 11.2188 313.306 10.0938C311.806 8.90625 310.681 8.3125 309.931 8.3125C309.056 8.3125 308.275 8.5625 307.587 9.0625C306.9 9.5 305.931 10.5312 304.681 12.1562C304.056 13.0312 303.494 14.2812 302.994 15.9062C302.556 17.3438 302.181 19.25 301.869 21.625C301.556 24 301.462 27.0625 301.587 30.8125L301.775 37.6562Z" fill="#DB36C0"/>
</svg>
